<svg width="201" height="318" viewBox="0 0 201 318" fill="none" xmlns="http://www.w3.org/2000/svg">
<path fill-rule="evenodd" clip-rule="evenodd" d="M99.7186 113.049C106.16 109.053 112.913 108.039 118.14 110.991C122.845 113.65 125.435 119.028 125.833 125.604C166.797 135.627 196.965 169.835 196.965 210.492C196.965 259.016 153.992 298.353 100.983 298.353C47.9729 298.353 5 259.016 5 210.492C5 175.303 27.5986 144.946 60.2356 130.918C60.4178 129.053 60.714 127.154 61.1303 125.238C64.8098 108.303 76.4844 96.4629 87.2062 98.7925C93.1954 100.094 97.6204 105.541 99.7186 113.049Z" fill="#FC3B00"/>
<path d="M80.7741 222.907C92.3071 222.907 101.656 212.05 101.656 198.657L59.8918 198.657C59.8918 212.05 69.2411 222.907 80.7741 222.907Z" fill="white"/>
<path d="M80.7742 216.171C88.5869 216.171 94.9203 208.33 94.9203 198.657L66.6281 198.657C66.6281 208.33 72.9615 216.171 80.7742 216.171Z" fill="black"/>
<rect width="28.9658" height="12.1252" rx="6.06262" transform="matrix(1 0 0 -1 65.9545 189.899)" fill="black"/>
<path d="M121.192 222.907C109.659 222.907 100.309 212.05 100.309 198.657L142.074 198.657C142.074 212.05 132.725 222.907 121.192 222.907Z" fill="white"/>
<path d="M121.192 216.171C113.379 216.171 107.046 208.33 107.046 198.657L135.338 198.657C135.338 208.33 129.004 216.171 121.192 216.171Z" fill="black"/>
<rect x="136.011" y="189.899" width="28.9658" height="12.1252" rx="6.06262" transform="rotate(-180 136.011 189.899)" fill="black"/>
<circle cx="5.05218" cy="5.05218" r="5.05218" transform="matrix(-1 0 0 1 105.698 210.782)" fill="#FEC400"/>
<path d="M73.3643 281.512C58.483 281.512 46.4193 293.576 46.4193 308.457H100.309C100.309 293.576 88.2456 281.512 73.3643 281.512Z" fill="black"/>
<path d="M129.275 281.512C114.394 281.512 102.33 293.576 102.33 308.457H156.22C156.22 293.576 144.156 281.512 129.275 281.512Z" fill="black"/>
<path d="M50.6787 220.026L43.9733 211.164C42.7996 209.613 40.5598 209.376 39.0871 210.647L36.8141 212.608C35.4174 213.813 35.25 215.917 36.4386 217.328L39.4339 220.883L43.8263 225.867C45.0954 227.307 47.3095 227.396 48.691 226.064L50.3309 224.483C51.5581 223.299 51.7075 221.385 50.6787 220.026Z" fill="#3C77FF"/>
<path d="M17.9551 233.801L28.7106 242.08C30.116 243.162 32.1197 242.969 33.2922 241.638L43.8641 229.639C44.9504 228.406 44.9884 226.569 43.9541 225.292L40.7722 221.364L36.5181 216.344C35.2878 214.892 33.1 214.747 31.6889 216.024L17.7499 228.634C16.1921 230.044 16.2904 232.52 17.9551 233.801Z" fill="white"/>
<path d="M56.0096 288.793L35.8496 252.726C34.9268 251.075 35.544 248.988 37.2163 248.104L52.4693 240.046C53.6897 239.401 55.1798 239.566 56.2295 240.463L84.554 264.643C86.1303 265.989 86.1288 268.425 84.5511 269.769L61.1335 289.713C59.5171 291.09 57.0455 290.646 56.0096 288.793Z" fill="#3C77FF"/>
<circle cx="52.1452" cy="253.097" r="25.2609" fill="#E73600"/>
<circle cx="149.147" cy="253.097" r="25.2609" fill="#E73600"/>
<g filter="url(#filter0_d_263_5255)">
<rect x="7" y="7.5" width="186" height="54" rx="8" fill="white" shape-rendering="crispEdges"/>
<path d="M77.8281 40.6074H76.748V28.4531H77.8281V40.6074ZM75.0254 30.668H73.6445V36.5195C74.3828 36.4694 75.0527 36.4056 75.6543 36.3281L75.7227 37.1348C74.5469 37.3171 73.3278 37.4378 72.0654 37.4971C70.8031 37.5563 69.4108 37.5905 67.8887 37.5996L67.7656 36.6836L69.4473 36.6768V30.668H68.0801V29.7793H75.0254V30.668ZM70.5 36.6562C71.1152 36.6426 71.8125 36.6175 72.5918 36.5811V30.668H70.5V36.6562ZM90.4941 36.5469H85.4219V40.6074H84.3691V36.5469H79.3652V35.6719H90.4941V36.5469ZM81.8535 30.6406H87.9785V28.959H89.0586V34.1953H80.7871V28.959H81.8535V30.6406ZM87.9785 33.3203V31.5156H81.8535V33.3203H87.9785ZM100.322 37.5586H94.7031V29.6562H100.322V37.5586ZM95.7559 36.6836H99.2695V30.5176H95.7559V36.6836ZM104.014 40.6348H102.934V28.4531H104.014V40.6348ZM115.627 37.3535H114.561V28.4668H115.627V37.3535ZM116.01 40.3477H107.779V36.4512H108.846V39.4453H116.01V40.3477ZM109.064 29.3145C109.666 29.3145 110.208 29.4421 110.691 29.6973C111.179 29.9479 111.56 30.3011 111.833 30.7568C112.111 31.208 112.25 31.7207 112.25 32.2949C112.25 32.8783 112.111 33.3978 111.833 33.8535C111.56 34.3047 111.179 34.6579 110.691 34.9131C110.208 35.1637 109.666 35.2891 109.064 35.2891C108.463 35.2891 107.918 35.1637 107.431 34.9131C106.948 34.6579 106.567 34.3047 106.289 33.8535C106.016 33.3978 105.879 32.8783 105.879 32.2949C105.879 31.7207 106.016 31.208 106.289 30.7568C106.567 30.3011 106.948 29.9479 107.431 29.6973C107.918 29.4421 108.463 29.3145 109.064 29.3145ZM109.064 30.2578C108.659 30.2578 108.292 30.3444 107.964 30.5176C107.64 30.6908 107.385 30.9323 107.198 31.2422C107.016 31.5521 106.927 31.903 106.932 32.2949C106.927 32.6914 107.016 33.0469 107.198 33.3613C107.385 33.6712 107.64 33.9128 107.964 34.0859C108.292 34.2591 108.659 34.3457 109.064 34.3457C109.461 34.3457 109.821 34.2591 110.145 34.0859C110.473 33.9128 110.73 33.6712 110.917 33.3613C111.104 33.0469 111.197 32.6914 111.197 32.2949C111.197 31.9076 111.104 31.5589 110.917 31.249C110.73 30.9391 110.473 30.6976 110.145 30.5244C109.821 30.3467 109.461 30.2578 109.064 30.2578ZM119.713 40.48H133.713V26.48H119.713V40.48Z" fill="black"/>
<path d="M97.3466 75.0766L89.8161 57.6925C88.958 55.7116 90.4101 53.5 92.5689 53.5H107.47C109.618 53.5 111.07 55.6927 110.232 57.671L102.861 75.0552C101.832 77.4835 98.395 77.4969 97.3466 75.0766Z" fill="white"/>
</g>
<defs>
<filter id="filter0_d_263_5255" x="0" y="0.5" width="200" height="83.3843" filterUnits="userSpaceOnUse" color-interpolation-filters="sRGB">
<feFlood flood-opacity="0" result="BackgroundImageFix"/>
<feColorMatrix in="SourceAlpha" type="matrix" values="0 0 0 0 0 0 0 0 0 0 0 0 0 0 0 0 0 0 127 0" result="hardAlpha"/>
<feOffset/>
<feGaussianBlur stdDeviation="3.5"/>
<feComposite in2="hardAlpha" operator="out"/>
<feColorMatrix type="matrix" values="0 0 0 0 0 0 0 0 0 0 0 0 0 0 0 0 0 0 0.05 0"/>
<feBlend mode="normal" in2="BackgroundImageFix" result="effect1_dropShadow_263_5255"/>
<feBlend mode="normal" in="SourceGraphic" in2="effect1_dropShadow_263_5255" result="shape"/>
</filter>
</defs>
</svg>
